<svg xmlns="http://www.w3.org/2000/svg" width="600" height="263" fill="none"><path fill="#01217B" fill-rule="evenodd" d="M218.178 0C208.299 0 200 7.762 200 17.564v227.052c0 9.767 8.284 17.564 18.178 17.564h164.609c9.879 0 18.177-7.762 18.177-17.564v-6.555c0-.127.036-.247.036-.374V188.15a4.188 4.188 0 0 0-.036-.593V56.877a4.451 4.451 0 0 0-1.411-3.247l-54.83-52.381A4.45 4.45 0 0 0 341.633 0H218.178Zm0 8.948H339.84l.36.338v34.408c0 3.846.127 7.664 1.898 11.234 1.772 3.571 5.999 6.245 10.804 6.245h39.136v122.319H208.941V17.564c0-4.742 3.93-8.616 9.237-8.616Zm130.765 8.686 36.44 34.803h-32.46c-2.455 0-2.392-.225-2.971-1.41-.578-1.186-.988-3.924-.988-7.347l-.021-26.046Zm-72.196 51.873a21.605 21.605 0 0 0-21.536 21.53v10.768a10.634 10.634 0 0 1-10.769 10.769 5.359 5.359 0 0 0-5.329 6.51 5.367 5.367 0 0 0 1.568 2.762c.261.24.542.457.84.649.465.283.969.494 1.496.628.336.102.681.171 1.03.205.125.007.25.007.374 0a10.613 10.613 0 0 1 7.657 3.112 10.606 10.606 0 0 1 2.33 3.513c.535 1.315.801 2.724.782 4.143v10.769a21.609 21.609 0 0 0 21.557 21.508 5.387 5.387 0 0 0 5.459-5.31 5.391 5.391 0 0 0-3.256-5.02 5.357 5.357 0 0 0-2.054-.438h-.149a10.615 10.615 0 0 1-10.768-10.762v-10.74a21.461 21.461 0 0 0-7.466-16.152 21.407 21.407 0 0 0 7.466-16.146V91.037a10.634 10.634 0 0 1 3.117-7.648 10.615 10.615 0 0 1 7.651-3.106 5.385 5.385 0 0 0 .149-10.761l-.149-.015Zm42.34 0a5.387 5.387 0 1 0 .55 10.762 10.627 10.627 0 0 1 10.762 10.768v10.768a21.398 21.398 0 0 0 7.501 16.167 21.472 21.472 0 0 0-7.466 16.152v10.769a10.62 10.62 0 0 1-10.761 10.761 5.394 5.394 0 0 0-3.83 1.522 5.38 5.38 0 0 0-1.252 5.851 5.39 5.39 0 0 0 2.872 2.956c.649.28 1.347.429 2.054.439h.156a21.596 21.596 0 0 0 21.529-21.529v-10.769a10.63 10.63 0 0 1 10.74-10.796 5.323 5.323 0 0 0 3.486-1.221c.141-.117.275-.242.403-.374a5.385 5.385 0 0 0-3.889-9.173 10.635 10.635 0 0 1-7.656-3.112 10.623 10.623 0 0 1-3.112-7.657V91.058a21.602 21.602 0 0 0-21.53-21.53 3.58 3.58 0 0 0-.55 0l-.007-.02Zm-20.902 21.488a5.382 5.382 0 0 0-5.28 6.434 5.378 5.378 0 0 0 4.23 4.231 5.388 5.388 0 0 0 5.527-2.29 5.38 5.38 0 0 0 .907-2.991 5.39 5.39 0 0 0-5.377-5.363l-.007-.021Zm-.084 21.473a5.38 5.38 0 0 0-5.3 5.44v32.305a5.384 5.384 0 1 0 10.768.149v-32.461a5.385 5.385 0 0 0-5.32-5.44l-.148.007Zm-88.815 80.325h182.427v44.894c0 8.785-5.963 15.172-12.779 15.172H222.066c-6.817 0-12.78-6.387-12.78-15.172v-44.894Z" clip-rule="evenodd"/><path fill="#01217B" d="M239.257 240.926c-.692-.165-1.268-.544-1.729-1.136a3.597 3.597 0 0 1-.642-2.075c0-.593.23-1.054.691-1.383a1.696 1.696 0 0 1 1.581-.198 20.79 20.79 0 0 0 6.619 1.087c2.305 0 3.985-.708 5.038-2.124 1.087-1.416 1.631-3.836 1.631-7.261v-19.907c0-.757.279-1.416.839-1.976.56-.559 1.219-.839 1.976-.839h.049c.758 0 1.417.28 1.976.839.56.56.84 1.219.84 1.976v21.389c0 4.314-.988 7.458-2.964 9.434-1.976 1.943-5.104 2.915-9.385 2.915-2.338 0-4.511-.247-6.52-.741ZM277.109 225.119c-3.754-1.284-6.471-2.816-8.151-4.594-1.646-1.811-2.469-3.984-2.469-6.52 0-2.898.922-5.187 2.766-6.866 1.844-1.68 4.38-2.519 7.607-2.519 3.029 0 5.697.362 8.002 1.086.692.231 1.251.675 1.679 1.334.462.626.692 1.334.692 2.124 0 .56-.247.988-.741 1.284a1.582 1.582 0 0 1-1.531.099c-2.503-1.054-5.039-1.581-7.607-1.581-1.778 0-3.145.445-4.1 1.334-.955.889-1.433 2.124-1.433 3.705 0 1.284.445 2.453 1.334 3.507.889 1.021 2.206 1.828 3.952 2.42 4.347 1.449 7.36 3.063 9.039 4.841 1.713 1.778 2.569 4.034 2.569 6.767 0 3.326-1.021 5.846-3.063 7.558-2.041 1.712-5.055 2.569-9.039 2.569-2.602 0-4.956-.395-7.064-1.186-1.548-.626-2.321-1.844-2.321-3.655 0-.56.247-.972.741-1.235a1.489 1.489 0 0 1 1.481 0c2.042 1.087 4.265 1.63 6.669 1.63 4.775 0 7.162-1.893 7.162-5.681 0-1.448-.477-2.683-1.432-3.704-.922-1.021-2.503-1.927-4.742-2.717ZM319.179 212.622c-1.811-2.371-4.396-3.557-7.755-3.557s-5.961 1.186-7.805 3.557c-1.811 2.338-2.717 5.845-2.717 10.521 0 4.676.906 8.2 2.717 10.571 1.844 2.338 4.446 3.507 7.805 3.507s5.944-1.169 7.755-3.507c1.844-2.371 2.766-5.895 2.766-10.571s-.922-8.183-2.766-10.521Zm3.952 24.154c-2.865 3.261-6.768 4.891-11.707 4.891-4.94 0-8.859-1.63-11.757-4.891-2.865-3.26-4.297-7.804-4.297-13.633 0-5.829 1.432-10.373 4.297-13.633 2.898-3.26 6.817-4.89 11.757-4.89 4.939 0 8.842 1.63 11.707 4.89 2.897 3.26 4.346 7.804 4.346 13.633 0 5.829-1.449 10.373-4.346 13.633ZM340.352 240.382c-.527.527-1.153.791-1.877.791-.725 0-1.351-.264-1.877-.791-.527-.527-.791-1.152-.791-1.877v-30.724c0-.724.264-1.35.791-1.877.526-.527 1.152-.79 1.877-.79 1.745 0 3.079.773 4.001 2.321l14.028 24.55c0 .033.033.049.099.049.033 0 .049-.016.049-.049v-24.204c0-.724.264-1.35.791-1.877.527-.527 1.152-.79 1.877-.79.724 0 1.35.263 1.877.79.527.527.79 1.153.79 1.877v30.724c0 .725-.263 1.35-.79 1.877-.527.527-1.153.791-1.877.791-1.746 0-3.079-.774-4.001-2.322l-14.078-24.55c0-.033-.017-.049-.05-.049s-.049.016-.049.049v24.204c0 .725-.263 1.35-.79 1.877Z"/></svg>